simulation
nRows=43
nColumns=15
endheader
time  TH_x TH_y TH_z SC_y  SC_z  SC_x  AC_y  AC_z  AC_x  GH_y  GH_z  GH_yy  EL_x  PS_y
0.250000  0.000000  0.000000  0.000000  -16.106675  15.340580  49.068874  69.033253  -17.460602  -4.442239  2.890882  37.592585  -5.580705  26.314926  91.047718
0.250561  0.000000  0.000000  0.000000  -16.106675  15.340580  53.354588  68.484439  -21.455452  -6.088654  2.890882  37.592585  -5.580705  26.314926  91.047718
0.251121  0.000000  0.000000  0.000000  -16.106675  15.340580  57.640302  67.792051  -25.433289  -7.827778  2.890882  37.592585  -5.580705  26.314926  91.047718
0.251682  0.000000  0.000000  0.000000  -16.106675  15.340580  61.926017  66.936235  -29.389256  -9.685497  2.890882  37.592585  -5.580705  26.314926  91.047718
0.252242  0.000000  0.000000  0.000000  -27.238564  19.535871  1.926017  60.243471  25.823985  12.373687  9.343668  50.443095  -23.985004  24.185128  95.697568
0.252803  0.000000  0.000000  0.000000  -27.238564  19.535871  6.211731  61.175451  22.085655  10.079719  9.343668  50.443095  -23.985004  24.185128  95.697568
0.253363  0.000000  0.000000  0.000000  -27.238564  19.535871  10.497445  61.927029  18.316989  7.904675  9.343668  50.443095  -23.985004  24.185128  95.697568
0.253924  0.000000  0.000000  0.000000  -27.238564  19.535871  14.783159  62.515958  14.524745  5.822732  9.343668  50.443095  -23.985004  24.185128  95.697568
0.254484  0.000000  0.000000  0.000000  -27.238564  19.535871  19.068874  62.955720  10.714757  3.811230  9.343668  50.443095  -23.985004  24.185128  95.697568
0.255045  0.000000  0.000000  0.000000  -27.238564  19.535871  23.354588  63.256089  6.892189  1.849874  9.343668  50.443095  -23.985004  24.185128  95.697568
0.255605  0.000000  0.000000  0.000000  -27.238564  19.535871  27.640302  63.423627  3.061751  -0.080033  9.343668  50.443095  -23.985004  24.185128  95.697568
0.256166  0.000000  0.000000  0.000000  -27.238564  19.535871  31.926017  63.461936  -0.772126  -1.996164  9.343668  50.443095  -23.985004  24.185128  95.697568
0.256726  0.000000  0.000000  0.000000  -27.238564  19.535871  36.211731  63.371833  -4.605141  -3.915758  9.343668  50.443095  -23.985004  24.185128  95.697568
0.257287  0.000000  0.000000  0.000000  -27.238564  19.535871  40.497445  63.151386  -8.432950  -5.856173  9.343668  50.443095  -23.985004  24.185128  95.697568
0.257848  0.000000  0.000000  0.000000  -27.238564  19.535871  44.783159  62.795840  -12.251041  -7.835394  9.343668  50.443095  -23.985004  24.185128  95.697568
0.258408  0.000000  0.000000  0.000000  -27.238564  19.535871  49.068874  62.297374  -16.054537  -9.872705  9.343668  50.443095  -23.985004  24.185128  95.697568
0.258969  0.000000  0.000000  0.000000  -27.238564  19.535871  53.354588  61.644786  -19.838032  -11.989259  9.343668  50.443095  -23.985004  24.185128  95.697568
0.259529  0.000000  0.000000  0.000000  -27.238564  19.535871  57.640302  60.822953  -23.595356  -14.208881  9.343668  50.443095  -23.985004  24.185128  95.697568
0.260090  0.000000  0.000000  0.000000  -27.238564  19.535871  61.926017  59.812158  -27.319282  -16.558975  9.343668  50.443095  -23.985004  24.185128  95.697568
0.260650  0.000000  0.000000  0.000000  -20.688820  14.815302  3.212845  63.185724  25.422641  10.847797  14.052203  37.198633  -15.648704  27.814519  97.164943
0.261211  0.000000  0.000000  0.000000  -20.688820  14.815302  7.498560  64.014798  21.583412  8.770220  14.052203  37.198633  -15.648704  27.814519  97.164943
0.261771  0.000000  0.000000  0.000000  -20.688820  14.815302  11.784274  64.677679  17.719752  6.800408  14.052203  37.198633  -15.648704  27.814519  97.164943
0.262332  0.000000  0.000000  0.000000  -20.688820  14.815302  16.069988  65.190970  13.837291  4.913996  14.052203  37.198633  -15.648704  27.814519  97.164943
0.262892  0.000000  0.000000  0.000000  -20.688820  14.815302  20.355702  65.567054  9.940883  3.089712  14.052203  37.198633  -15.648704  27.814519  97.164943
0.263453  0.000000  0.000000  0.000000  -20.688820  14.815302  24.641417  65.814735  6.034831  1.308520  14.052203  37.198633  -15.648704  27.814519  97.164943
0.264013  0.000000  0.000000  0.000000  -20.688820  14.815302  28.927131  65.939698  2.123073  -0.447116  14.052203  37.198633  -15.648704  27.814519  97.164943
0.264574  0.000000  0.000000  0.000000  -20.688820  14.815302  33.212845  65.944771  -1.790666  -2.193901  14.052203  37.198633  -15.648704  27.814519  97.164943
0.265135  0.000000  0.000000  0.000000  -20.688820  14.815302  37.498560  65.830061  -5.702733  -3.948158  14.052203  37.198633  -15.648704  27.814519  97.164943
0.265695  0.000000  0.000000  0.000000  -20.688820  14.815302  41.784274  65.592980  -9.609418  -5.726517  14.052203  37.198633  -15.648704  27.814519  97.164943
0.266256  0.000000  0.000000  0.000000  -20.688820  14.815302  46.069988  65.228100  -13.506806  -7.546425  14.052203  37.198633  -15.648704  27.814519  97.164943
0.266816  0.000000  0.000000  0.000000  -20.688820  14.815302  50.355702  64.726892  -17.390632  -9.426767  14.052203  37.198633  -15.648704  27.814519  97.164943
0.267377  0.000000  0.000000  0.000000  -20.688820  14.815302  54.641417  64.077297  -21.256094  -11.388598  14.052203  37.198633  -15.648704  27.814519  97.164943
0.267937  0.000000  0.000000  0.000000  -20.688820  14.815302  58.927131  63.263102  -25.097640  -13.455982  14.052203  37.198633  -15.648704  27.814519  97.164943
0.268498  0.000000  0.000000  0.000000  -20.688820  14.815302  63.212845  62.263083  -28.908678  -15.657052  14.052203  37.198633  -15.648704  27.814519  97.164943
0.269058  0.000000  0.000000  0.000000  -12.326085  14.438249  3.212845  65.137443  30.886532  14.290563  -5.728834  36.432241  -19.601608  32.239797  101.111051
0.269619  0.000000  0.000000  0.000000  -12.326085  14.438249  7.498560  66.115640  26.982324  12.270033  -5.728834  36.432241  -19.601608  32.239797  101.111051
0.270179  0.000000  0.000000  0.000000  -12.326085  14.438249  11.784274  66.913052  23.051251  10.385628  -5.728834  36.432241  -19.601608  32.239797  101.111051
0.270740  0.000000  0.000000  0.000000  -12.326085  14.438249  16.069988  67.552499  19.099122  8.608558  -5.728834  36.432241  -19.601608  32.239797  101.111051
0.271300  0.000000  0.000000  0.000000  -12.326085  14.438249  20.355702  68.051323  15.130750  6.914679  -5.728834  36.432241  -19.601608  32.239797  101.111051
0.271861  0.000000  0.000000  0.000000  -12.326085  14.438249  24.641417  68.422460  11.150225  5.283256  -5.728834  36.432241  -19.601608  32.239797  101.111051
0.272422  0.000000  0.000000  0.000000  -12.326085  14.438249  28.927131  68.675181  7.161127  3.696034  -5.728834  36.432241  -19.601608  32.239797  101.111051
0.272982  0.000000  0.000000  0.000000  -12.326085  14.438249  33.212845  68.815650  3.166683  2.136394  -5.728834  36.432241  -19.601608  32.239797  101.111051
0.273543  0.000000  0.000000  0.000000  -12.326085  14.438249  37.498560  68.847226  -0.830082  0.588759  -5.728834  36.432241  -19.601608  32.239797  101.111051
